<svg width="143" height="55" viewBox="0 0 143 55" fill="none" xmlns="http://www.w3.org/2000/svg">
<path d="M11.8961 15.168H5.84813L4.91213 18H0.544125L6.40013 1.104H11.3921L17.2241 18H12.8321L11.8961 15.168ZM10.8641 12.048L8.87213 6.048L6.88013 12.048H10.8641ZM24.9255 4.464C26.5575 4.464 27.9415 4.872 29.0775 5.688C30.2135 6.488 30.9655 7.64 31.3335 9.144H26.8935C26.5095 8.344 25.8535 7.944 24.9255 7.944C24.1095 7.944 23.4855 8.256 23.0535 8.88C22.6375 9.488 22.4295 10.296 22.4295 11.304C22.4295 12.312 22.6375 13.128 23.0535 13.752C23.4855 14.36 24.1095 14.664 24.9255 14.664C25.4375 14.664 25.8375 14.576 26.1255 14.4C26.4135 14.224 26.6695 13.912 26.8935 13.464H31.3335C30.9655 14.904 30.2055 16.048 29.0535 16.896C27.9015 17.744 26.5255 18.168 24.9255 18.168C23.6455 18.168 22.4935 17.888 21.4695 17.328C20.4615 16.768 19.6695 15.968 19.0935 14.928C18.5335 13.888 18.2535 12.68 18.2535 11.304C18.2535 9.928 18.5335 8.728 19.0935 7.704C19.6695 6.664 20.4615 5.864 21.4695 5.304C22.4935 4.744 23.6455 4.464 24.9255 4.464ZM39.3161 4.464C40.9481 4.464 42.3321 4.872 43.4681 5.688C44.6041 6.488 45.3561 7.64 45.7241 9.144H41.2841C40.9001 8.344 40.2441 7.944 39.3161 7.944C38.5001 7.944 37.8761 8.256 37.4441 8.88C37.0281 9.488 36.8201 10.296 36.8201 11.304C36.8201 12.312 37.0281 13.128 37.4441 13.752C37.8761 14.36 38.5001 14.664 39.3161 14.664C39.8281 14.664 40.2281 14.576 40.5161 14.4C40.8041 14.224 41.0601 13.912 41.2841 13.464H45.7241C45.3561 14.904 44.5961 16.048 43.4441 16.896C42.2921 17.744 40.9161 18.168 39.3161 18.168C38.0361 18.168 36.8841 17.888 35.8601 17.328C34.8521 16.768 34.0601 15.968 33.4841 14.928C32.9241 13.888 32.6441 12.68 32.6441 11.304C32.6441 9.928 32.9241 8.728 33.4841 7.704C34.0601 6.664 34.8521 5.864 35.8601 5.304C36.8841 4.744 38.0361 4.464 39.3161 4.464ZM61.2188 4.608V18H57.1148V16.032C56.7148 16.688 56.1628 17.208 55.4588 17.592C54.7708 17.96 53.9708 18.144 53.0588 18.144C52.0508 18.144 51.1548 17.92 50.3708 17.472C49.6028 17.008 48.9948 16.344 48.5468 15.48C48.1148 14.616 47.8988 13.6 47.8988 12.432V4.608H51.9788V11.88C51.9788 12.744 52.2028 13.416 52.6508 13.896C53.1148 14.36 53.7468 14.592 54.5468 14.592C55.3468 14.592 55.9708 14.36 56.4188 13.896C56.8828 13.416 57.1148 12.744 57.1148 11.88V4.608H61.2188ZM82.0314 4.464C83.6634 4.464 84.9594 4.968 85.9194 5.976C86.8794 6.984 87.3594 8.384 87.3594 10.176V18H83.2794V10.728C83.2794 9.864 83.0474 9.2 82.5834 8.736C82.1354 8.256 81.5114 8.016 80.7114 8.016C79.9114 8.016 79.2794 8.256 78.8154 8.736C78.3674 9.2 78.1434 9.864 78.1434 10.728V18H74.0634V10.728C74.0634 9.864 73.8314 9.2 73.3674 8.736C72.9194 8.256 72.2954 8.016 71.4954 8.016C70.6954 8.016 70.0634 8.256 69.5994 8.736C69.1514 9.2 68.9274 9.864 68.9274 10.728V18H64.8234V4.608H68.9274V6.576C69.3274 5.92 69.8714 5.408 70.5594 5.04C71.2634 4.656 72.0714 4.464 72.9834 4.464C73.9754 4.464 74.8554 4.688 75.6234 5.136C76.4074 5.584 77.0154 6.224 77.4474 7.056C77.9434 6.272 78.5834 5.648 79.3674 5.184C80.1674 4.704 81.0554 4.464 82.0314 4.464ZM104.039 4.608V18H99.9351V16.032C99.5351 16.688 98.9831 17.208 98.2791 17.592C97.5911 17.96 96.7911 18.144 95.8791 18.144C94.8711 18.144 93.9751 17.92 93.1911 17.472C92.4231 17.008 91.8151 16.344 91.3671 15.48C90.9351 14.616 90.7191 13.6 90.7191 12.432V4.608H94.7991V11.88C94.7991 12.744 95.0231 13.416 95.4711 13.896C95.9351 14.36 96.5671 14.592 97.3671 14.592C98.1671 14.592 98.7911 14.36 99.2391 13.896C99.7031 13.416 99.9351 12.744 99.9351 11.88V4.608H104.039ZM111.748 0.24V18H107.644V0.24H111.748ZM128.555 4.608V18H124.451V16.032C124.051 16.688 123.499 17.208 122.795 17.592C122.107 17.96 121.307 18.144 120.395 18.144C119.387 18.144 118.491 17.92 117.707 17.472C116.939 17.008 116.331 16.344 115.883 15.48C115.451 14.616 115.235 13.6 115.235 12.432V4.608H119.315V11.88C119.315 12.744 119.539 13.416 119.987 13.896C120.451 14.36 121.083 14.592 121.883 14.592C122.683 14.592 123.307 14.36 123.755 13.896C124.219 13.416 124.451 12.744 124.451 11.88V4.608H128.555ZM137.031 4.464C138.631 4.464 139.959 4.856 141.015 5.64C142.071 6.424 142.631 7.496 142.695 8.856H138.495C138.447 8.392 138.287 8.08 138.015 7.92C137.743 7.744 137.335 7.656 136.791 7.656C136.279 7.656 135.879 7.744 135.591 7.92C135.319 8.08 135.183 8.32 135.183 8.64C135.183 9.008 135.383 9.28 135.783 9.456C136.199 9.616 136.871 9.8 137.799 10.008C138.807 10.216 139.639 10.44 140.295 10.68C140.967 10.904 141.543 11.28 142.023 11.808C142.503 12.32 142.743 13.024 142.743 13.92C142.743 14.752 142.495 15.488 141.999 16.128C141.519 16.768 140.847 17.272 139.983 17.64C139.135 17.992 138.183 18.168 137.127 18.168C135.463 18.168 134.087 17.8 132.999 17.064C131.911 16.312 131.319 15.208 131.223 13.752H135.423C135.487 14.184 135.663 14.496 135.951 14.688C136.239 14.88 136.639 14.976 137.151 14.976C137.631 14.976 138.023 14.864 138.327 14.64C138.647 14.416 138.807 14.144 138.807 13.824C138.807 13.44 138.591 13.16 138.159 12.984C137.727 12.792 137.047 12.6 136.119 12.408C135.111 12.2 134.279 11.984 133.623 11.76C132.983 11.536 132.423 11.176 131.943 10.68C131.479 10.168 131.247 9.488 131.247 8.64C131.247 7.872 131.463 7.176 131.895 6.552C132.343 5.912 132.999 5.408 133.863 5.04C134.743 4.656 135.799 4.464 137.031 4.464ZM13.6032 40.224V43.848H18.9792V46.968H13.6032V50.88H19.6992V54H9.49922V37.104H19.6992V40.224H13.6032ZM28.3456 40.464C30.0576 40.464 31.3696 41.096 32.2816 42.36V36.24H36.3856V54H32.2816V52.056C31.2896 53.464 29.9776 54.168 28.3456 54.168C27.2416 54.168 26.2176 53.88 25.2736 53.304C24.3456 52.728 23.6096 51.92 23.0656 50.88C22.5216 49.84 22.2496 48.656 22.2496 47.328C22.2496 46 22.5216 44.816 23.0656 43.776C23.6096 42.736 24.3456 41.928 25.2736 41.352C26.2176 40.76 27.2416 40.464 28.3456 40.464ZM29.3536 44.016C28.8736 44.016 28.4016 44.144 27.9376 44.4C27.4896 44.64 27.1216 45.008 26.8336 45.504C26.5616 46 26.4256 46.608 26.4256 47.328C26.4256 48.048 26.5616 48.656 26.8336 49.152C27.1216 49.632 27.4896 50 27.9376 50.256C28.3856 50.496 28.8576 50.616 29.3536 50.616C29.8336 50.616 30.2976 50.496 30.7456 50.256C31.2096 50 31.5776 49.624 31.8496 49.128C32.1376 48.632 32.2816 48.024 32.2816 47.304C32.2816 46.584 32.1376 45.984 31.8496 45.504C31.5776 45.008 31.2176 44.64 30.7696 44.4C30.3216 44.144 29.8496 44.016 29.3536 44.016ZM53.1914 40.608V54H49.0874V52.032C48.6874 52.688 48.1354 53.208 47.4314 53.592C46.7434 53.96 45.9434 54.144 45.0314 54.144C44.0234 54.144 43.1274 53.92 42.3434 53.472C41.5754 53.008 40.9674 52.344 40.5194 51.48C40.0874 50.616 39.8714 49.6 39.8714 48.432V40.608H43.9514V47.88C43.9514 48.744 44.1754 49.416 44.6234 49.896C45.0874 50.36 45.7194 50.592 46.5194 50.592C47.3194 50.592 47.9434 50.36 48.3914 49.896C48.8554 49.416 49.0874 48.744 49.0874 47.88V40.608H53.1914ZM62.4841 40.464C64.1161 40.464 65.5001 40.872 66.6361 41.688C67.7721 42.488 68.5241 43.64 68.8921 45.144H64.4521C64.0681 44.344 63.4121 43.944 62.4841 43.944C61.6681 43.944 61.0441 44.256 60.6121 44.88C60.1961 45.488 59.9881 46.296 59.9881 47.304C59.9881 48.312 60.1961 49.128 60.6121 49.752C61.0441 50.36 61.6681 50.664 62.4841 50.664C62.9961 50.664 63.3961 50.576 63.6841 50.4C63.9721 50.224 64.2281 49.912 64.4521 49.464H68.8921C68.5241 50.904 67.7641 52.048 66.6121 52.896C65.4601 53.744 64.0841 54.168 62.4841 54.168C61.2041 54.168 60.0521 53.888 59.0281 53.328C58.0201 52.768 57.2281 51.968 56.6521 50.928C56.0921 49.888 55.8121 48.68 55.8121 47.304C55.8121 45.928 56.0921 44.728 56.6521 43.704C57.2281 42.664 58.0201 41.864 59.0281 41.304C60.0521 40.744 61.2041 40.464 62.4841 40.464ZM76.2987 40.464C78.0107 40.464 79.3227 41.096 80.2347 42.36V40.608H84.3387V54H80.2347V52.056C79.2427 53.464 77.9307 54.168 76.2987 54.168C75.1947 54.168 74.1707 53.88 73.2267 53.304C72.2987 52.728 71.5627 51.92 71.0187 50.88C70.4747 49.84 70.2027 48.656 70.2027 47.328C70.2027 46 70.4747 44.816 71.0187 43.776C71.5627 42.736 72.2987 41.928 73.2267 41.352C74.1707 40.76 75.1947 40.464 76.2987 40.464ZM77.3067 44.016C76.8267 44.016 76.3547 44.144 75.8907 44.4C75.4427 44.64 75.0747 45.008 74.7867 45.504C74.5147 46 74.3787 46.608 74.3787 47.328C74.3787 48.048 74.5147 48.656 74.7867 49.152C75.0747 49.632 75.4427 50 75.8907 50.256C76.3387 50.496 76.8107 50.616 77.3067 50.616C77.7867 50.616 78.2507 50.496 78.6987 50.256C79.1627 50 79.5307 49.624 79.8027 49.128C80.0907 48.632 80.2347 48.024 80.2347 47.304C80.2347 46.584 80.0907 45.984 79.8027 45.504C79.5307 45.008 79.1707 44.64 78.7227 44.4C78.2747 44.144 77.8027 44.016 77.3067 44.016ZM95.0965 50.52V54H93.0085C91.5045 54 90.3365 53.672 89.5045 53.016C88.6885 52.344 88.2805 51.2 88.2805 49.584V44.016H87.0325V40.608H88.2805V37.344H92.3845V40.608H95.0725V44.016H92.3845V49.584C92.3845 49.904 92.4805 50.144 92.6725 50.304C92.8645 50.448 93.1845 50.52 93.6325 50.52H95.0965ZM97.5455 37.392C97.5455 36.704 97.7775 36.128 98.2415 35.664C98.7055 35.2 99.2735 34.968 99.9455 34.968C100.617 34.968 101.185 35.2 101.649 35.664C102.113 36.128 102.345 36.704 102.345 37.392C102.345 38.064 102.113 38.632 101.649 39.096C101.185 39.56 100.617 39.792 99.9455 39.792C99.2735 39.792 98.7055 39.56 98.2415 39.096C97.7775 38.632 97.5455 38.064 97.5455 37.392ZM102.009 40.608V54H97.9055V40.608H102.009ZM111.664 40.464C112.944 40.464 114.112 40.744 115.168 41.304C116.24 41.848 117.088 42.64 117.712 43.68C118.336 44.704 118.648 45.904 118.648 47.28C118.648 48.656 118.336 49.864 117.712 50.904C117.104 51.944 116.272 52.752 115.216 53.328C114.16 53.888 112.984 54.168 111.688 54.168C110.392 54.168 109.208 53.888 108.136 53.328C107.064 52.752 106.216 51.944 105.592 50.904C104.968 49.864 104.656 48.656 104.656 47.28C104.656 45.904 104.968 44.704 105.592 43.68C106.216 42.64 107.056 41.848 108.112 41.304C109.184 40.744 110.368 40.464 111.664 40.464ZM111.664 43.968C110.88 43.968 110.208 44.256 109.648 44.832C109.104 45.392 108.832 46.216 108.832 47.304C108.832 48.392 109.112 49.224 109.672 49.8C110.248 50.376 110.92 50.664 111.688 50.664C112.456 50.664 113.112 50.376 113.656 49.8C114.2 49.224 114.472 48.392 114.472 47.304C114.472 46.216 114.192 45.392 113.632 44.832C113.072 44.256 112.416 43.968 111.664 43.968ZM129.456 40.464C130.464 40.464 131.352 40.696 132.12 41.16C132.904 41.608 133.512 42.264 133.944 43.128C134.392 43.992 134.616 45.008 134.616 46.176V54H130.536V46.728C130.536 45.864 130.304 45.2 129.84 44.736C129.392 44.256 128.768 44.016 127.968 44.016C127.168 44.016 126.536 44.256 126.072 44.736C125.624 45.2 125.4 45.864 125.4 46.728V54H121.296V40.608H125.4V42.576C125.8 41.92 126.344 41.408 127.032 41.04C127.736 40.656 128.544 40.464 129.456 40.464Z" fill="#797979"/>
</svg>
