<svg width="79" height="36" viewBox="0 0 79 36" fill="none" xmlns="http://www.w3.org/2000/svg">
<path d="M16.4695 26H12.8455V18.608H6.05353V26H2.42953V8.864H6.05353V15.584H12.8455V8.864H16.4695V26ZM32.3971 19.424C32.3971 20.512 32.2451 21.48 31.9411 22.328C31.6531 23.176 31.2291 23.896 30.6691 24.488C30.1251 25.064 29.4611 25.504 28.6771 25.808C27.8931 26.096 27.0051 26.24 26.0131 26.24C25.1011 26.24 24.2531 26.096 23.4691 25.808C22.7011 25.504 22.0371 25.064 21.4771 24.488C20.9171 23.896 20.4771 23.176 20.1571 22.328C19.8531 21.48 19.7011 20.512 19.7011 19.424C19.7011 17.968 19.9571 16.744 20.4691 15.752C20.9811 14.744 21.7171 13.976 22.6771 13.448C23.6371 12.92 24.7731 12.656 26.0851 12.656C27.3171 12.656 28.4051 12.92 29.3491 13.448C30.2931 13.976 31.0371 14.744 31.5811 15.752C32.1251 16.744 32.3971 17.968 32.3971 19.424ZM23.3491 19.424C23.3491 20.288 23.4371 21.016 23.6131 21.608C23.8051 22.184 24.1011 22.624 24.5011 22.928C24.9011 23.216 25.4211 23.36 26.0611 23.36C26.7011 23.36 27.2131 23.216 27.5971 22.928C27.9971 22.624 28.2851 22.184 28.4611 21.608C28.6531 21.016 28.7491 20.288 28.7491 19.424C28.7491 18.56 28.6531 17.84 28.4611 17.264C28.2851 16.688 27.9971 16.256 27.5971 15.968C27.1971 15.68 26.6771 15.536 26.0371 15.536C25.0931 15.536 24.4051 15.864 23.9731 16.52C23.5571 17.16 23.3491 18.128 23.3491 19.424ZM51.8645 12.896V26H48.5285V19.568C48.5285 18.928 48.5365 18.304 48.5525 17.696C48.5845 17.088 48.6245 16.528 48.6725 16.016H48.6005L44.9765 26H42.2885L38.6165 15.992H38.5205C38.5845 16.52 38.6245 17.088 38.6405 17.696C38.6725 18.288 38.6885 18.944 38.6885 19.664V26H35.3525V12.896H40.4165L43.6805 21.776L46.9925 12.896H51.8645Z" fill="black"/>
<path d="M68 26L58.4737 14L77.5263 14L68 26Z" fill="#656565"/>
</svg>
