<svg width="127" height="36" viewBox="0 0 127 36" fill="none" xmlns="http://www.w3.org/2000/svg">
<path d="M9.52575 11.648C8.83775 11.648 8.22175 11.784 7.67775 12.056C7.14975 12.328 6.70175 12.72 6.33375 13.232C5.96575 13.728 5.68575 14.336 5.49375 15.056C5.31775 15.776 5.22975 16.584 5.22975 17.48C5.22975 18.696 5.37375 19.736 5.66175 20.6C5.96575 21.448 6.43775 22.096 7.07775 22.544C7.71775 22.992 8.53375 23.216 9.52575 23.216C10.2298 23.216 10.9258 23.136 11.6138 22.976C12.3178 22.816 13.0778 22.592 13.8938 22.304V25.352C13.1418 25.656 12.3978 25.88 11.6618 26.024C10.9258 26.168 10.1018 26.24 9.18975 26.24C7.42975 26.24 5.97375 25.88 4.82175 25.16C3.68575 24.424 2.84575 23.4 2.30175 22.088C1.75775 20.76 1.48575 19.216 1.48575 17.456C1.48575 16.16 1.66175 14.976 2.01375 13.904C2.36575 12.816 2.87775 11.88 3.54975 11.096C4.23775 10.312 5.07775 9.704 6.06975 9.272C7.07775 8.84 8.22975 8.624 9.52575 8.624C10.3738 8.624 11.2218 8.736 12.0698 8.96C12.9338 9.168 13.7578 9.456 14.5418 9.824L13.3658 12.776C12.7258 12.472 12.0778 12.208 11.4218 11.984C10.7818 11.76 10.1498 11.648 9.52575 11.648ZM15.375 12.896H19.287L21.759 20.264C21.839 20.504 21.903 20.744 21.951 20.984C22.015 21.224 22.063 21.472 22.095 21.728C22.143 21.984 22.175 22.256 22.191 22.544H22.263C22.311 22.128 22.375 21.736 22.455 21.368C22.551 20.984 22.655 20.616 22.767 20.264L25.191 12.896H29.031L23.487 27.68C23.151 28.576 22.711 29.328 22.167 29.936C21.639 30.544 21.023 31 20.319 31.304C19.615 31.608 18.847 31.76 18.015 31.76C17.615 31.76 17.263 31.736 16.959 31.688C16.671 31.656 16.415 31.616 16.191 31.568V28.736C16.367 28.768 16.575 28.8 16.815 28.832C17.071 28.864 17.335 28.88 17.607 28.88C18.103 28.88 18.527 28.776 18.879 28.568C19.247 28.36 19.551 28.072 19.791 27.704C20.031 27.352 20.223 26.968 20.367 26.552L20.583 25.904L15.375 12.896ZM38.2071 12.656C39.6791 12.656 40.8711 13.232 41.7831 14.384C42.6951 15.52 43.1511 17.2 43.1511 19.424C43.1511 20.912 42.9351 22.168 42.5031 23.192C42.0711 24.2 41.4791 24.96 40.7271 25.472C39.9751 25.984 39.1031 26.24 38.1111 26.24C37.4871 26.24 36.9431 26.16 36.4791 26C36.0311 25.84 35.6471 25.632 35.3271 25.376C35.0071 25.12 34.7271 24.848 34.4871 24.56H34.2951C34.3591 24.864 34.4071 25.184 34.4391 25.52C34.4711 25.84 34.4871 26.16 34.4871 26.48V31.76H30.9111V12.896H33.8151L34.3191 14.6H34.4871C34.7271 14.248 35.0151 13.928 35.3511 13.64C35.6871 13.336 36.0871 13.096 36.5511 12.92C37.0311 12.744 37.5831 12.656 38.2071 12.656ZM37.0551 15.512C36.4311 15.512 35.9351 15.64 35.5671 15.896C35.1991 16.152 34.9271 16.544 34.7511 17.072C34.5911 17.584 34.5031 18.232 34.4871 19.016V19.4C34.4871 20.248 34.5671 20.968 34.7271 21.56C34.8871 22.136 35.1591 22.576 35.5431 22.88C35.9271 23.184 36.4471 23.336 37.1031 23.336C37.6471 23.336 38.0951 23.184 38.4471 22.88C38.7991 22.576 39.0631 22.128 39.2391 21.536C39.4151 20.944 39.5031 20.224 39.5031 19.376C39.5031 18.096 39.3031 17.136 38.9031 16.496C38.5191 15.84 37.9031 15.512 37.0551 15.512ZM55.1466 12.896V15.584H49.6746V26H46.0986V12.896H55.1466ZM62.9355 12.632C64.6955 12.632 66.0395 13.016 66.9675 13.784C67.9115 14.536 68.3835 15.696 68.3835 17.264V26H65.8875L65.1915 24.224H65.0955C64.7275 24.688 64.3435 25.072 63.9435 25.376C63.5595 25.68 63.1115 25.896 62.5995 26.024C62.1035 26.168 61.4875 26.24 60.7515 26.24C59.9835 26.24 59.2875 26.096 58.6635 25.808C58.0555 25.504 57.5755 25.048 57.2235 24.44C56.8715 23.816 56.6955 23.032 56.6955 22.088C56.6955 20.696 57.1835 19.672 58.1595 19.016C59.1355 18.344 60.5995 17.976 62.5515 17.912L64.8315 17.84V17.264C64.8315 16.576 64.6475 16.072 64.2795 15.752C63.9275 15.432 63.4315 15.272 62.7915 15.272C62.1515 15.272 61.5275 15.368 60.9195 15.56C60.3115 15.736 59.7035 15.96 59.0955 16.232L57.9195 13.808C58.6235 13.44 59.3995 13.152 60.2475 12.944C61.1115 12.736 62.0075 12.632 62.9355 12.632ZM63.4395 19.976C62.2875 20.008 61.4875 20.216 61.0395 20.6C60.5915 20.984 60.3675 21.488 60.3675 22.112C60.3675 22.656 60.5275 23.048 60.8475 23.288C61.1675 23.512 61.5835 23.624 62.0955 23.624C62.8635 23.624 63.5115 23.4 64.0395 22.952C64.5675 22.488 64.8315 21.84 64.8315 21.008V19.928L63.4395 19.976ZM83.7799 26H80.2039V15.584H76.9159C76.7559 17.504 76.5559 19.144 76.3159 20.504C76.0919 21.848 75.8039 22.944 75.4519 23.792C75.1159 24.64 74.6839 25.264 74.1559 25.664C73.6279 26.048 72.9799 26.24 72.2119 26.24C71.7959 26.24 71.4199 26.208 71.0839 26.144C70.7479 26.08 70.4439 25.984 70.1719 25.856V23C70.3479 23.064 70.5319 23.12 70.7239 23.168C70.9159 23.216 71.1159 23.24 71.3239 23.24C71.5479 23.24 71.7559 23.152 71.9479 22.976C72.1559 22.8 72.3479 22.488 72.5239 22.04C72.7159 21.592 72.8919 20.976 73.0519 20.192C73.2119 19.408 73.3559 18.424 73.4839 17.24C73.6279 16.04 73.7559 14.592 73.8679 12.896H83.7799V26ZM98.3606 15.584H94.0646V26H90.4886V15.584H86.1926V12.896H98.3606V15.584Z" fill="black"/>
<path d="M116 26L106.474 14L125.526 14L116 26Z" fill="#656565"/>
</svg>
