<svg width="22" height="18" viewBox="0 0 22 18" fill="none" xmlns="http://www.w3.org/2000/svg">
<path d="M15.9927 1.13281H6.61922C4.03081 1.13281 1.9325 2.82039 1.9325 4.90212V12.4407C1.9325 14.5225 4.03081 16.21 6.61922 16.21H15.9927C18.5811 16.21 20.6794 14.5225 20.6794 12.4407V4.90212C20.6794 2.82039 18.5811 1.13281 15.9927 1.13281Z" fill="black" stroke="white" stroke-width="2" stroke-linecap="round" stroke-linejoin="round"/>
<path d="M15.0553 8.19642C15.1709 8.82382 15.0377 9.46458 14.6745 10.0276C14.3112 10.5905 13.7365 11.0471 13.0321 11.3322C12.3277 11.6174 11.5294 11.7167 10.7508 11.6159C9.97215 11.5151 9.25287 11.2195 8.69522 10.771C8.13757 10.3225 7.76996 9.744 7.64467 9.1178C7.51938 8.4916 7.64279 7.84957 7.99735 7.28302C8.35191 6.71648 8.91957 6.25428 9.61958 5.96216C10.3196 5.67004 11.1163 5.56288 11.8964 5.65591C12.6921 5.75081 13.4288 6.04902 13.9976 6.5065C14.5665 6.96397 14.9373 7.55645 15.0553 8.19642Z" fill="black" stroke="white" stroke-width="2" stroke-linecap="round" stroke-linejoin="round"/>
<path d="M16.4613 4.52515H16.471" stroke="white" stroke-width="2" stroke-linecap="round" stroke-linejoin="round"/>
</svg>
