<svg width="153" height="36" viewBox="0 0 153 36" fill="none" xmlns="http://www.w3.org/2000/svg">
<path d="M2.30453 26V8.864H15.8645V26H12.2405V11.888H5.92853V26H2.30453ZM31.6353 26H28.0593V15.584H24.7713C24.6113 17.504 24.4113 19.144 24.1713 20.504C23.9473 21.848 23.6593 22.944 23.3073 23.792C22.9713 24.64 22.5393 25.264 22.0113 25.664C21.4833 26.048 20.8353 26.24 20.0673 26.24C19.6513 26.24 19.2753 26.208 18.9393 26.144C18.6033 26.08 18.2993 25.984 18.0273 25.856V23C18.2033 23.064 18.3873 23.12 18.5793 23.168C18.7713 23.216 18.9713 23.24 19.1793 23.24C19.4033 23.24 19.6113 23.152 19.8033 22.976C20.0113 22.8 20.2033 22.488 20.3793 22.04C20.5713 21.592 20.7473 20.976 20.9073 20.192C21.0673 19.408 21.2113 18.424 21.3393 17.24C21.4833 16.04 21.6113 14.592 21.7233 12.896H31.6353V26ZM40.7441 12.632C42.5041 12.632 43.8481 13.016 44.7761 13.784C45.7201 14.536 46.1921 15.696 46.1921 17.264V26H43.6961L43.0001 24.224H42.9041C42.5361 24.688 42.1521 25.072 41.7521 25.376C41.3681 25.68 40.9201 25.896 40.4081 26.024C39.9121 26.168 39.2961 26.24 38.5601 26.24C37.7921 26.24 37.0961 26.096 36.4721 25.808C35.8641 25.504 35.3841 25.048 35.0321 24.44C34.6801 23.816 34.5041 23.032 34.5041 22.088C34.5041 20.696 34.9921 19.672 35.9681 19.016C36.9441 18.344 38.4081 17.976 40.3601 17.912L42.6401 17.84V17.264C42.6401 16.576 42.4561 16.072 42.0881 15.752C41.7361 15.432 41.2401 15.272 40.6001 15.272C39.9601 15.272 39.3361 15.368 38.7281 15.56C38.1201 15.736 37.5121 15.96 36.9041 16.232L35.7281 13.808C36.4321 13.44 37.2081 13.152 38.0561 12.944C38.9201 12.736 39.8161 12.632 40.7441 12.632ZM41.2481 19.976C40.0961 20.008 39.2961 20.216 38.8481 20.6C38.4001 20.984 38.1761 21.488 38.1761 22.112C38.1761 22.656 38.3361 23.048 38.6561 23.288C38.9761 23.512 39.3921 23.624 39.9041 23.624C40.6721 23.624 41.3201 23.4 41.8481 22.952C42.3761 22.488 42.6401 21.84 42.6401 21.008V19.928L41.2481 19.976ZM60.7005 15.584H56.4045V26H52.8285V15.584H48.5325V12.896H60.7005V15.584ZM72.4597 12.824C73.9797 12.952 75.2597 13.312 76.2997 13.904C77.3397 14.48 78.1237 15.24 78.6517 16.184C79.1957 17.128 79.4677 18.216 79.4677 19.448C79.4677 20.664 79.2037 21.752 78.6757 22.712C78.1637 23.672 77.3877 24.448 76.3477 25.04C75.3237 25.616 74.0277 25.968 72.4597 26.096V31.76H69.1477V26.096C67.6437 25.952 66.3637 25.592 65.3077 25.016C64.2677 24.424 63.4677 23.656 62.9077 22.712C62.3637 21.752 62.0917 20.664 62.0917 19.448C62.0917 18.2 62.3397 17.096 62.8357 16.136C63.3477 15.176 64.1237 14.408 65.1637 13.832C66.2197 13.256 67.5477 12.92 69.1477 12.824V7.76H72.4597V12.824ZM69.1477 15.512C68.4597 15.608 67.8597 15.84 67.3477 16.208C66.8357 16.56 66.4437 17.016 66.1717 17.576C65.8997 18.12 65.7637 18.744 65.7637 19.448C65.7637 20.152 65.8917 20.784 66.1477 21.344C66.4197 21.904 66.8037 22.36 67.2997 22.712C67.8117 23.064 68.4277 23.288 69.1477 23.384V15.512ZM72.4597 23.384C73.1797 23.288 73.7877 23.064 74.2837 22.712C74.7797 22.36 75.1557 21.904 75.4117 21.344C75.6677 20.784 75.7957 20.152 75.7957 19.448C75.7957 18.744 75.6597 18.12 75.3877 17.576C75.1157 17.016 74.7317 16.56 74.2357 16.208C73.7397 15.856 73.1477 15.64 72.4597 15.56V23.384ZM94.3346 19.424C94.3346 20.512 94.1826 21.48 93.8786 22.328C93.5906 23.176 93.1666 23.896 92.6066 24.488C92.0626 25.064 91.3986 25.504 90.6146 25.808C89.8306 26.096 88.9426 26.24 87.9506 26.24C87.0386 26.24 86.1906 26.096 85.4066 25.808C84.6386 25.504 83.9746 25.064 83.4146 24.488C82.8546 23.896 82.4146 23.176 82.0946 22.328C81.7906 21.48 81.6386 20.512 81.6386 19.424C81.6386 17.968 81.8946 16.744 82.4066 15.752C82.9186 14.744 83.6546 13.976 84.6146 13.448C85.5746 12.92 86.7106 12.656 88.0226 12.656C89.2546 12.656 90.3426 12.92 91.2866 13.448C92.2306 13.976 92.9746 14.744 93.5186 15.752C94.0626 16.744 94.3346 17.968 94.3346 19.424ZM85.2866 19.424C85.2866 20.288 85.3746 21.016 85.5506 21.608C85.7426 22.184 86.0386 22.624 86.4386 22.928C86.8386 23.216 87.3586 23.36 87.9986 23.36C88.6386 23.36 89.1506 23.216 89.5346 22.928C89.9346 22.624 90.2226 22.184 90.3986 21.608C90.5906 21.016 90.6866 20.288 90.6866 19.424C90.6866 18.56 90.5906 17.84 90.3986 17.264C90.2226 16.688 89.9346 16.256 89.5346 15.968C89.1346 15.68 88.6146 15.536 87.9746 15.536C87.0306 15.536 86.3426 15.864 85.9106 16.52C85.4946 17.16 85.2866 18.128 85.2866 19.424ZM104.586 12.656C106.058 12.656 107.25 13.232 108.162 14.384C109.074 15.52 109.53 17.2 109.53 19.424C109.53 20.912 109.314 22.168 108.882 23.192C108.45 24.2 107.858 24.96 107.106 25.472C106.354 25.984 105.482 26.24 104.49 26.24C103.866 26.24 103.322 26.16 102.858 26C102.41 25.84 102.026 25.632 101.706 25.376C101.386 25.12 101.106 24.848 100.866 24.56H100.674C100.738 24.864 100.786 25.184 100.818 25.52C100.85 25.84 100.866 26.16 100.866 26.48V31.76H97.29V12.896H100.194L100.698 14.6H100.866C101.106 14.248 101.394 13.928 101.73 13.64C102.066 13.336 102.466 13.096 102.93 12.92C103.41 12.744 103.962 12.656 104.586 12.656ZM103.434 15.512C102.81 15.512 102.314 15.64 101.946 15.896C101.578 16.152 101.306 16.544 101.13 17.072C100.97 17.584 100.882 18.232 100.866 19.016V19.4C100.866 20.248 100.946 20.968 101.106 21.56C101.266 22.136 101.538 22.576 101.922 22.88C102.306 23.184 102.826 23.336 103.482 23.336C104.026 23.336 104.474 23.184 104.826 22.88C105.178 22.576 105.442 22.128 105.618 21.536C105.794 20.944 105.882 20.224 105.882 19.376C105.882 18.096 105.682 17.136 105.282 16.496C104.898 15.84 104.282 15.512 103.434 15.512ZM128.989 12.896V26H125.653V19.568C125.653 18.928 125.661 18.304 125.677 17.696C125.709 17.088 125.749 16.528 125.797 16.016H125.725L122.101 26H119.413L115.741 15.992H115.645C115.709 16.52 115.749 17.088 115.765 17.696C115.797 18.288 115.813 18.944 115.813 19.664V26H112.477V12.896H117.541L120.805 21.776L124.117 12.896H128.989Z" fill="black"/>
<path d="M142 26L132.474 14L151.526 14L142 26Z" fill="#656565"/>
</svg>
