<svg width="139" height="27" viewBox="0 0 139 27" fill="none" xmlns="http://www.w3.org/2000/svg">
<path d="M5.16897 15.992V26H0.0929673V0.872H9.34497C11.289 0.872 12.945 1.22 14.313 1.916C15.681 2.588 16.701 3.5 17.373 4.652C18.069 5.78 18.417 7.04 18.417 8.432C18.417 9.656 18.117 10.844 17.517 11.996C16.941 13.124 15.969 14.072 14.601 14.84C13.257 15.608 11.505 15.992 9.34497 15.992H5.16897ZM9.34497 12.104C10.617 12.104 11.589 11.78 12.261 11.132C12.933 10.46 13.269 9.56 13.269 8.432C13.269 7.304 12.933 6.416 12.261 5.768C11.589 5.096 10.617 4.76 9.34497 4.76H5.16897V12.104H9.34497ZM34.5174 22.148H42.5814V26H29.4414V0.872H34.5174V22.148ZM68.068 21.284H58.276L56.656 26H51.292L60.184 0.799998H66.196L75.052 26H69.688L68.068 21.284ZM66.772 17.396L63.172 6.92L59.608 17.396H66.772ZM102.919 0.872V4.76H96.1148V26H91.0748V4.76H84.3068V0.872H102.919ZM125.454 0.512C127.83 0.512 129.99 1.064 131.934 2.168C133.902 3.272 135.45 4.808 136.578 6.776C137.73 8.72 138.306 10.916 138.306 13.364C138.306 15.836 137.73 18.056 136.578 20.024C135.45 21.968 133.902 23.492 131.934 24.596C129.966 25.7 127.806 26.252 125.454 26.252C123.102 26.252 120.942 25.7 118.974 24.596C117.006 23.492 115.446 21.968 114.294 20.024C113.166 18.056 112.602 15.836 112.602 13.364C112.602 10.916 113.166 8.72 114.294 6.776C115.446 4.808 117.006 3.272 118.974 2.168C120.942 1.064 123.102 0.512 125.454 0.512ZM125.454 5.156C123.942 5.156 122.598 5.492 121.422 6.164C120.27 6.836 119.37 7.796 118.722 9.044C118.074 10.292 117.75 11.732 117.75 13.364C117.75 14.996 118.074 16.436 118.722 17.684C119.37 18.932 120.27 19.904 121.422 20.6C122.598 21.272 123.942 21.608 125.454 21.608C126.966 21.608 128.298 21.272 129.45 20.6C130.602 19.904 131.502 18.944 132.15 17.72C132.798 16.472 133.122 15.02 133.122 13.364C133.122 11.708 132.798 10.268 132.15 9.044C131.502 7.796 130.602 6.836 129.45 6.164C128.298 5.492 126.966 5.156 125.454 5.156Z" fill="#797979"/>
</svg>
