<svg width="29" height="18" viewBox="0 0 29 18" fill="none" xmlns="http://www.w3.org/2000/svg">
<path d="M27.4463 3.47594C27.3035 3.01643 27.0127 2.5954 26.6032 2.25539C26.1937 1.91538 25.68 1.66843 25.1141 1.53947C23.0464 1.13281 14.7755 1.13281 14.7755 1.13281C14.7755 1.13281 6.50463 1.13281 4.43691 1.5782C3.87098 1.70715 3.35734 1.95411 2.94784 2.29412C2.53835 2.63413 2.24751 3.05516 2.10471 3.51467C1.72628 5.20478 1.54118 6.91929 1.55171 8.63664C1.53822 10.3669 1.72334 12.0945 2.10471 13.7973C2.26214 14.2426 2.55949 14.6476 2.96803 14.9732C3.37657 15.2989 3.88249 15.5342 4.43691 15.6563C6.50463 16.1017 14.7755 16.1017 14.7755 16.1017C14.7755 16.1017 23.0464 16.1017 25.1141 15.6563C25.68 15.5274 26.1937 15.2804 26.6032 14.9404C27.0127 14.6004 27.3035 14.1794 27.4463 13.7199C27.8218 12.0425 28.0069 10.3411 27.9993 8.63664C28.0128 6.90636 27.8277 5.17878 27.4463 3.47594V3.47594Z" stroke="white" stroke-width="2" stroke-linecap="round" stroke-linejoin="round"/>
<path d="M12.0707 11.803L18.9831 8.63683L12.0707 5.4707V11.803Z" stroke="white" stroke-width="2" stroke-linecap="round" stroke-linejoin="round"/>
</svg>
